<?xml version="1.0" standalone="no"?>
<!DOCTYPE svg PUBLIC "-//W3C//DTD SVG 20010904//EN"
 "http://www.w3.org/TR/2001/REC-SVG-20010904/DTD/svg10.dtd">
<svg version="1.0" xmlns="http://www.w3.org/2000/svg"
 width="64.000000pt" height="64.000000pt" viewBox="0 0 64.000000 64.000000"
 preserveAspectRatio="xMidYMid meet">
<metadata>
Created by potrace 1.16, written by Peter Selinger 2001-2019
</metadata>
<g transform="translate(0.000000,64.000000) scale(0.100000,-0.100000)"
fill="#000000" stroke="none">
<path d="M225 623 c-85 -44 -134 -136 -121 -225 7 -49 196 -393 216 -393 19 0
209 345 216 392 13 87 -37 182 -117 223 -48 25 -150 26 -194 3z m143 -143 c32
-30 30 -82 -4 -109 -15 -12 -34 -21 -44 -21 -34 0 -70 39 -70 76 0 65 71 98
118 54z"/>
</g>
</svg>
